<svg width="103" height="17" viewBox="0 0 103 17" fill="none" xmlns="http://www.w3.org/2000/svg">
<g opacity="0.5">
<path d="M21.4049 11.7603V16.7032H19.0039V3.45271H21.3878V4.76721C22.0183 3.83821 23.0878 3.26001 24.367 3.26001C26.7509 3.26001 28.9233 5.17031 28.9233 8.18701C28.9233 11.2037 26.7151 13.1123 24.3841 13.1123C23.1054 13.11 22.036 12.637 21.4049 11.7603ZM26.5053 8.16771C26.5053 6.67751 25.3489 5.50351 23.894 5.50351C22.4044 5.50351 21.265 6.69741 21.265 8.16771C21.265 9.63791 22.4021 10.8313 23.894 10.8313C25.3489 10.8313 26.5053 9.65731 26.5053 8.16771Z" fill="black"/>
<path d="M50.8691 3.45271H53.2855V4.57451C53.8637 3.75231 54.775 3.26001 55.9144 3.26001C57.3358 3.26001 58.2983 3.83821 58.8066 4.85471C59.4024 3.87341 60.4713 3.26281 61.7682 3.26281C64.1697 3.26281 65.379 4.73481 65.379 7.10111V12.9173H62.8899V7.44791C62.8899 6.16811 62.364 5.37951 61.1376 5.37951C60.0506 5.37951 59.3319 6.11861 59.3319 7.60541V12.9173H56.861V7.37851C56.861 6.11691 56.3351 5.38071 55.1605 5.38071C54.0234 5.38071 53.3031 6.13451 53.3031 7.65941V12.9173H50.8691V3.45271Z" fill="black"/>
<path d="M71.5128 3.276C69.4939 3.276 67.8252 4.3977 67.0389 6.0437C66.7163 6.7231 66.5502 7.4662 66.5528 8.2184C66.5528 10.9701 68.5154 13.1261 71.5651 13.1261C73.5607 13.1261 74.8627 12.3386 75.8036 11.1043L73.8256 9.9621C73.3486 10.6262 72.6317 11.0423 71.6004 11.0423C70.1983 11.0423 69.1988 10.2708 68.8838 9.0439H76.3398C76.3807 8.7712 76.4014 8.4958 76.4017 8.2201V8.1302C76.4029 5.3267 74.3498 3.276 71.5128 3.276ZM68.9543 7.1495C69.3398 6.0454 70.2864 5.3267 71.5128 5.3267C72.7744 5.3267 73.6858 5.9754 74.0013 7.1495H68.9543Z" fill="black"/>
<path d="M77.6104 3.45283H80.0289V4.64683C80.6424 3.78833 81.6208 3.26233 82.7983 3.26233C85.0418 3.26233 86.4614 4.73433 86.4614 7.20583V12.9174H83.9901V7.57313C83.9901 6.22393 83.3412 5.38253 82.062 5.38253C80.9249 5.38253 80.0465 6.22393 80.0465 7.69593V12.9174H77.6104V3.45283Z" fill="black"/>
<path d="M87.104 3.45277H88.8563V1.40203L91.2402 0V3.45277H93.7287V5.59107H91.2402V9.48217C91.2402 10.4812 91.6609 10.8314 92.2744 10.8314C92.607 10.8314 92.8702 10.7262 93.1505 10.4812L94.2546 12.3739C93.6412 12.8287 92.8702 13.0925 91.9935 13.0925C90.0133 13.0925 88.8563 12.1459 88.8563 9.56747V5.58767H87.104V3.45277Z" fill="black"/>
<path d="M37.2173 4.66201C36.5691 3.78591 35.5349 3.26001 34.2904 3.26001C31.8718 3.26001 29.6982 5.17031 29.6982 8.18471C29.6982 11.1992 31.9241 13.11 34.2557 13.11C35.4826 13.11 36.5515 12.5489 37.2173 11.6204V12.9173H39.6012V3.45561H37.2173V4.66201ZM34.7287 10.8313C33.2738 10.8313 32.0998 9.65731 32.0998 8.16771C32.0998 6.67811 33.2738 5.50351 34.7287 5.50351C36.2183 5.50351 37.3577 6.69741 37.3577 8.16771C37.3577 9.63791 36.2183 10.8313 34.7287 10.8313Z" fill="black"/>
<path d="M47.6696 3.45276L45.3386 9.55216L42.8847 3.45276H40.3081L44.1116 12.5143L44.1611 12.6326L42.6266 16.6476L42.6186 16.6681H45.1424L50.1934 3.45276H47.6696Z" fill="black"/>
<path d="M96.5124 9.85581C96.9354 10.6955 97.6905 11.1316 98.6894 11.1293C99.6713 11.1265 100.196 10.6523 100.195 10.0912C100.195 9.40891 99.1755 9.25251 97.9651 9.01091C96.3692 8.68231 94.597 8.19621 94.5913 6.19781C94.5873 4.60581 96.1264 3.21401 98.4574 3.22541C100.31 3.22031 101.47 3.86501 102.332 4.96291L100.324 6.13011C99.9362 5.50011 99.3392 5.13341 98.4625 5.13571C97.5159 5.13851 97.0611 5.52521 97.0628 6.05111C97.0628 6.64691 97.836 6.80271 99.2233 7.09721C100.801 7.40821 102.662 7.94661 102.667 9.97971C102.671 11.4523 101.359 13.1209 98.6081 13.1107C96.5329 13.1164 95.161 12.4006 94.3667 11.1032L94.3633 11.0975L96.5124 9.85581Z" fill="black"/>
<path d="M15.2213 7.60258C15.0416 6.06438 14.3075 4.64428 13.1563 3.60828C12.0052 2.57218 10.5159 1.9912 8.96727 1.974H8.89677C8.64979 1.97411 8.40302 1.98834 8.15766 2.01668C7.28974 2.11658 6.45182 2.39468 5.69643 2.83368C5.67994 2.84328 5.66459 2.85298 5.6481 2.86208L5.60603 2.88708C1.96506 5.05548 0.666504 10.0633 0.666504 13.1101L3.59849 11.4176C4.63211 13.3864 6.61463 14.6839 8.82514 14.7077H8.89564C9.14263 14.7074 9.3894 14.693 9.63475 14.6645C11.312 14.4687 12.8427 13.6148 13.8904 12.2904C14.938 10.9661 15.4168 9.27988 15.2213 7.60258Z" fill="black"/>
</g>
</svg>
